<svg xmlns="http://www.w3.org/2000/svg" xmlns:xlink="http://www.w3.org/1999/xlink" width="500" zoomAndPan="magnify" viewBox="0 0 375 374.999991" height="500" preserveAspectRatio="xMidYMid meet" version="1.0"><defs><clipPath id="8ee4271324"><path d="M 50.023438 50.023438 L 325 50.023438 L 325 325 L 50.023438 325 Z M 50.023438 50.023438 " clip-rule="nonzero"/></clipPath><clipPath id="12a2b0147e"><path d="M 50.023438 50.023438 L 325 50.023438 L 325 325 L 50.023438 325 Z M 50.023438 50.023438 " clip-rule="nonzero"/></clipPath></defs><g clip-path="url(#8ee4271324)"><path fill="#555c6a" d="M 324.964844 187.496094 C 324.964844 189.746094 324.910156 191.992188 324.800781 194.242188 C 324.691406 196.488281 324.523438 198.730469 324.304688 200.96875 C 324.082031 203.210938 323.808594 205.441406 323.476562 207.667969 C 323.148438 209.890625 322.761719 212.109375 322.324219 214.316406 C 321.886719 216.519531 321.394531 218.714844 320.847656 220.898438 C 320.300781 223.082031 319.699219 225.25 319.046875 227.402344 C 318.394531 229.554688 317.6875 231.691406 316.929688 233.808594 C 316.171875 235.925781 315.363281 238.023438 314.5 240.101562 C 313.640625 242.183594 312.730469 244.238281 311.765625 246.273438 C 310.804688 248.304688 309.792969 250.316406 308.734375 252.296875 C 307.671875 254.28125 306.566406 256.238281 305.40625 258.167969 C 304.25 260.097656 303.046875 262 301.796875 263.871094 C 300.546875 265.742188 299.253906 267.578125 297.914062 269.386719 C 296.574219 271.195312 295.1875 272.96875 293.761719 274.707031 C 292.335938 276.445312 290.867188 278.148438 289.355469 279.816406 C 287.84375 281.480469 286.292969 283.109375 284.703125 284.703125 C 283.109375 286.292969 281.480469 287.84375 279.816406 289.355469 C 278.148438 290.867188 276.445312 292.335938 274.707031 293.761719 C 272.96875 295.1875 271.195312 296.574219 269.386719 297.914062 C 267.578125 299.253906 265.742188 300.546875 263.871094 301.796875 C 262 303.046875 260.097656 304.25 258.167969 305.40625 C 256.238281 306.566406 254.28125 307.671875 252.296875 308.734375 C 250.316406 309.792969 248.304688 310.804688 246.273438 311.765625 C 244.238281 312.730469 242.183594 313.640625 240.101562 314.5 C 238.023438 315.363281 235.925781 316.171875 233.808594 316.929688 C 231.691406 317.6875 229.554688 318.394531 227.402344 319.046875 C 225.25 319.699219 223.082031 320.300781 220.898438 320.847656 C 218.714844 321.394531 216.519531 321.886719 214.316406 322.324219 C 212.109375 322.761719 209.890625 323.148438 207.667969 323.476562 C 205.441406 323.808594 203.210938 324.082031 200.96875 324.304688 C 198.730469 324.523438 196.488281 324.691406 194.242188 324.800781 C 191.992188 324.910156 189.746094 324.964844 187.496094 324.964844 C 185.246094 324.964844 182.996094 324.910156 180.75 324.800781 C 178.503906 324.691406 176.261719 324.523438 174.019531 324.304688 C 171.78125 324.082031 169.550781 323.808594 167.324219 323.476562 C 165.097656 323.148438 162.882812 322.761719 160.675781 322.324219 C 158.46875 321.886719 156.273438 321.394531 154.09375 320.847656 C 151.910156 320.300781 149.742188 319.699219 147.589844 319.046875 C 145.4375 318.394531 143.300781 317.6875 141.183594 316.929688 C 139.066406 316.171875 136.964844 315.363281 134.886719 314.5 C 132.808594 313.640625 130.753906 312.730469 128.71875 311.765625 C 126.683594 310.804688 124.675781 309.792969 122.691406 308.734375 C 120.707031 307.671875 118.75 306.566406 116.820312 305.40625 C 114.890625 304.25 112.992188 303.046875 111.121094 301.796875 C 109.25 300.546875 107.410156 299.253906 105.605469 297.914062 C 103.796875 296.574219 102.023438 295.1875 100.285156 293.761719 C 98.546875 292.335938 96.84375 290.867188 95.175781 289.355469 C 93.507812 287.84375 91.878906 286.292969 90.289062 284.703125 C 88.699219 283.109375 87.148438 281.480469 85.636719 279.816406 C 84.125 278.148438 82.65625 276.445312 81.230469 274.707031 C 79.800781 272.96875 78.417969 271.195312 77.078125 269.386719 C 75.738281 267.578125 74.441406 265.742188 73.191406 263.871094 C 71.941406 262 70.738281 260.097656 69.582031 258.167969 C 68.425781 256.238281 67.316406 254.28125 66.257812 252.296875 C 65.195312 250.316406 64.1875 248.304688 63.222656 246.273438 C 62.261719 244.238281 61.351562 242.183594 60.488281 240.101562 C 59.628906 238.023438 58.820312 235.925781 58.0625 233.808594 C 57.304688 231.691406 56.597656 229.554688 55.945312 227.402344 C 55.292969 225.25 54.691406 223.082031 54.144531 220.898438 C 53.597656 218.714844 53.105469 216.519531 52.667969 214.316406 C 52.226562 212.109375 51.84375 209.890625 51.511719 207.667969 C 51.183594 205.441406 50.90625 203.210938 50.6875 200.96875 C 50.464844 198.730469 50.300781 196.488281 50.191406 194.242188 C 50.082031 191.992188 50.023438 189.746094 50.023438 187.496094 C 50.023438 185.246094 50.082031 182.996094 50.191406 180.75 C 50.300781 178.503906 50.464844 176.261719 50.6875 174.019531 C 50.90625 171.78125 51.183594 169.550781 51.511719 167.324219 C 51.84375 165.097656 52.226562 162.882812 52.667969 160.675781 C 53.105469 158.46875 53.597656 156.273438 54.144531 154.09375 C 54.691406 151.910156 55.292969 149.742188 55.945312 147.589844 C 56.597656 145.4375 57.304688 143.300781 58.0625 141.183594 C 58.820312 139.066406 59.628906 136.964844 60.488281 134.886719 C 61.351562 132.808594 62.261719 130.753906 63.222656 128.71875 C 64.1875 126.683594 65.195312 124.675781 66.257812 122.691406 C 67.316406 120.707031 68.425781 118.75 69.582031 116.820312 C 70.738281 114.890625 71.941406 112.992188 73.191406 111.121094 C 74.441406 109.25 75.738281 107.410156 77.078125 105.605469 C 78.417969 103.796875 79.800781 102.023438 81.230469 100.285156 C 82.65625 98.546875 84.125 96.84375 85.636719 95.175781 C 87.148438 93.507812 88.699219 91.878906 90.289062 90.289062 C 91.878906 88.699219 93.507812 87.148438 95.175781 85.636719 C 96.84375 84.125 98.546875 82.65625 100.285156 81.230469 C 102.023438 79.800781 103.796875 78.417969 105.605469 77.078125 C 107.410156 75.738281 109.25 74.441406 111.121094 73.191406 C 112.992188 71.941406 114.890625 70.738281 116.820312 69.582031 C 118.75 68.425781 120.707031 67.316406 122.691406 66.257812 C 124.675781 65.195312 126.683594 64.1875 128.71875 63.222656 C 130.753906 62.261719 132.808594 61.351562 134.886719 60.488281 C 136.964844 59.628906 139.066406 58.820312 141.183594 58.0625 C 143.300781 57.304688 145.4375 56.597656 147.589844 55.945312 C 149.742188 55.292969 151.910156 54.691406 154.09375 54.144531 C 156.273438 53.597656 158.46875 53.105469 160.675781 52.667969 C 162.882812 52.226562 165.097656 51.84375 167.324219 51.511719 C 169.550781 51.183594 171.78125 50.90625 174.019531 50.6875 C 176.261719 50.464844 178.503906 50.300781 180.75 50.191406 C 182.996094 50.082031 185.246094 50.023438 187.496094 50.023438 C 189.746094 50.023438 191.992188 50.082031 194.242188 50.191406 C 196.488281 50.300781 198.730469 50.464844 200.96875 50.6875 C 203.210938 50.90625 205.441406 51.183594 207.667969 51.511719 C 209.890625 51.84375 212.109375 52.226562 214.316406 52.667969 C 216.519531 53.105469 218.714844 53.597656 220.898438 54.144531 C 223.082031 54.691406 225.25 55.292969 227.402344 55.945312 C 229.554688 56.597656 231.691406 57.304688 233.808594 58.0625 C 235.925781 58.820312 238.023438 59.628906 240.101562 60.488281 C 242.183594 61.351562 244.238281 62.261719 246.273438 63.222656 C 248.304688 64.1875 250.316406 65.195312 252.296875 66.257812 C 254.28125 67.316406 256.238281 68.425781 258.167969 69.582031 C 260.097656 70.738281 262 71.941406 263.871094 73.191406 C 265.742188 74.441406 267.578125 75.738281 269.386719 77.078125 C 271.195312 78.417969 272.96875 79.800781 274.707031 81.230469 C 276.445312 82.65625 278.148438 84.125 279.816406 85.636719 C 281.480469 87.148438 283.109375 88.699219 284.703125 90.289062 C 286.292969 91.878906 287.84375 93.507812 289.355469 95.175781 C 290.867188 96.84375 292.335938 98.546875 293.761719 100.285156 C 295.1875 102.023438 296.574219 103.796875 297.914062 105.605469 C 299.253906 107.410156 300.546875 109.25 301.796875 111.121094 C 303.046875 112.992188 304.25 114.890625 305.40625 116.820312 C 306.566406 118.75 307.671875 120.707031 308.734375 122.691406 C 309.792969 124.675781 310.804688 126.683594 311.765625 128.71875 C 312.730469 130.753906 313.640625 132.808594 314.5 134.886719 C 315.363281 136.964844 316.171875 139.066406 316.929688 141.183594 C 317.6875 143.300781 318.394531 145.4375 319.046875 147.589844 C 319.699219 149.742188 320.300781 151.910156 320.847656 154.09375 C 321.394531 156.273438 321.886719 158.46875 322.324219 160.675781 C 322.761719 162.882812 323.148438 165.097656 323.476562 167.324219 C 323.808594 169.550781 324.082031 171.78125 324.304688 174.019531 C 324.523438 176.261719 324.691406 178.503906 324.800781 180.75 C 324.910156 182.996094 324.964844 185.246094 324.964844 187.496094 Z M 324.964844 187.496094 " fill-opacity="1" fill-rule="nonzero"/></g><path stroke-linecap="butt" transform="matrix(0.968208, 0.000000000000000237, -0.000000000000000237, 0.968208, 72.840753, 185.576618)" fill="none" stroke-linejoin="miter" d="M -0.000939433 2.9992 L 232.625102 2.9992 " stroke="#cdf27e" stroke-width="6" stroke-opacity="1" stroke-miterlimit="4"/><path stroke-linecap="butt" transform="matrix(0.684627, -0.684627, 0.684627, 0.684627, 217.983799, 264.456369)" fill="none" stroke-linejoin="miter" d="M -0.0000629553 3.002084 L 116.94894 3.002084 " stroke="#cdf27e" stroke-width="6" stroke-opacity="1" stroke-miterlimit="4"/><path stroke-linecap="butt" transform="matrix(0.684627, -0.684627, 0.684627, 0.684627, 120.744335, 264.456779)" fill="none" stroke-linejoin="miter" d="M -0.00175226 2.999795 L 113.980305 2.999795 " stroke="#cdf27e" stroke-width="6" stroke-opacity="1" stroke-miterlimit="4"/><path stroke-linecap="butt" transform="matrix(-0.684627, -0.684627, 0.684627, -0.684627, 298.049339, 192.567527)" fill="none" stroke-linejoin="miter" d="M 0.00261853 3.000198 L 119.815865 3.000198 " stroke="#cdf27e" stroke-width="6" stroke-opacity="1" stroke-miterlimit="4"/><path stroke-linecap="butt" transform="matrix(-0.684627, -0.684627, 0.684627, -0.684627, 198.891099, 190.534646)" fill="none" stroke-linejoin="miter" d="M -0.0000262349 3.00046 L 116.846275 3.00046 " stroke="#cdf27e" stroke-width="6" stroke-opacity="1" stroke-miterlimit="4"/><g clip-path="url(#12a2b0147e)"><path fill="#cdf27e" d="M 187.496094 50.023438 C 111.648438 50.023438 50.023438 111.648438 50.023438 187.496094 C 50.023438 263.347656 111.648438 324.96875 187.496094 324.96875 C 263.347656 324.96875 324.96875 263.347656 324.96875 187.496094 C 324.96875 111.648438 263.347656 50.023438 187.496094 50.023438 Z M 187.496094 56.003906 C 260.195312 56.003906 318.992188 114.796875 318.992188 187.496094 C 318.992188 260.195312 260.195312 318.992188 187.496094 318.992188 C 114.796875 318.992188 56.003906 260.195312 56.003906 187.496094 C 56.003906 114.796875 114.796875 56.003906 187.496094 56.003906 Z M 187.496094 56.003906 " fill-opacity="1" fill-rule="nonzero"/></g></svg>