<?xml version="1.0" encoding="UTF-8"?>
<svg version="1.1" xmlns="http://www.w3.org/2000/svg" width="512" height="512">
<path d="M0 0 C0.94396637 -0.0080365 1.88793274 -0.016073 2.86050415 -0.02435303 C13.46835462 -0.09276922 23.87690991 0.32837219 34.40234375 1.7109375 C35.7582235 1.88527817 35.7582235 1.88527817 37.14149475 2.06314087 C43.34733969 2.96408668 50.29817793 4.05948389 54.3125 9.375 C57.46331944 13.82321569 57.87889148 16.9900239 57.4375 22.375 C55.77150639 27.75435287 53.69338266 30.75158731 48.60327148 33.4753418 C44.32700892 35.25169481 39.78934625 35.88458296 35.25 36.6875 C4.44560624 42.69891337 -21.90451818 56.67271513 -44.5625 78.375 C-45.30628906 79.06722656 -46.05007812 79.75945312 -46.81640625 80.47265625 C-56.83702491 90.075023 -64.74064397 101.33318126 -71.5625 113.375 C-71.88959961 113.94992188 -72.21669922 114.52484375 -72.55371094 115.1171875 C-92.77028361 151.25061299 -96.87028589 194.52652349 -85.8125 234.1875 C-83.13687694 243.27926046 -79.7260955 251.87035155 -75.5625 260.375 C-75.26649902 260.99536133 -74.97049805 261.61572266 -74.66552734 262.25488281 C-65.0130611 282.3107365 -48.24090463 305.33675511 -28.5625 316.375 C-23.17943296 306.18425314 -18.3141904 296.75260343 -17.08984375 285.1328125 C-16.97068604 284.0025061 -16.97068604 284.0025061 -16.84912109 282.84936523 C-16.70351957 281.36369041 -16.57646777 279.87603857 -16.47119141 278.38696289 C-15.94254407 272.43655847 -13.98568279 268.50446366 -9.5 264.5625 C-5.3963935 262.04738634 -1.24356169 261.88646415 3.4375 262.375 C8.12423359 264.08746035 10.79976233 266.13577874 13.4375 270.375 C14.97638437 274.90615954 15.54070912 279.23361517 16.02954102 283.98999023 C17.80430998 300.67439086 24.90533862 316.88198965 37.4375 328.375 C53.97998331 341.44163078 71.39705231 347.19527134 92.4375 345.375 C129.83282515 340.41650385 166.140386 316.78754535 189.18310547 287.60205078 C205.95840419 265.55622653 216.21325945 239.89561159 220.91870117 212.70556641 C221.81450426 207.93644742 222.91152706 204.9278375 226.4375 201.375 C231.05387943 198.33238628 235.05189325 197.59791847 240.4375 198.375 C245.3936628 200.12423393 248.65291345 202.9520306 251.4375 207.375 C252.37851518 210.10811331 252.80356717 212.82848019 253.1875 215.6875 C253.29964844 216.39583984 253.41179687 217.10417969 253.52734375 217.83398438 C253.86290769 220.01120217 254.15384862 222.19043294 254.4375 224.375 C254.52596191 225.05103775 254.61442383 225.7270755 254.70556641 226.42359924 C255.3888661 232.0584945 255.61179107 237.61591183 255.640625 243.2890625 C255.64763931 244.21330521 255.65465363 245.13754791 255.66188049 246.08979797 C255.67930807 249.0599153 255.68573363 252.02983341 255.6875 255 C255.68851212 256.51981979 255.68851212 256.51981979 255.68954468 258.07034302 C255.67400905 272.7253762 255.3634322 286.9660573 252.4375 301.375 C252.26057617 302.27541016 252.08365234 303.17582031 251.90136719 304.10351562 C250.60240726 310.5781242 249.09130732 316.98242152 247.4375 323.375 C247.22786621 324.19500488 247.01823242 325.01500977 246.80224609 325.85986328 C236.21929343 366.32601098 214.35722379 403.34858847 185.4375 433.375 C184.80537598 434.03435547 184.17325195 434.69371094 183.52197266 435.37304688 C174.37883624 444.85994274 165.09920051 453.62827496 154.4375 461.375 C153.78313965 461.85775391 153.1287793 462.34050781 152.45458984 462.83789062 C120.509517 486.34222285 84.48768654 502.1883968 45.4375 509.375 C44.63683105 509.53581055 43.83616211 509.69662109 43.01123047 509.86230469 C14.94422956 515.352321 -18.56434244 515.12443715 -46.5625 509.375 C-47.57505859 509.17632324 -48.58761719 508.97764648 -49.63085938 508.77294922 C-90.72350049 500.55565205 -127.65886417 483.11482803 -160.5625 457.375 C-161.10165039 456.95589355 -161.64080078 456.53678711 -162.19628906 456.10498047 C-178.43636305 443.34196125 -193.50712343 428.15073511 -205.5625 411.375 C-206.4262527 410.20511544 -207.29085469 409.0358575 -208.15625 407.8671875 C-223.29957742 387.2411757 -235.3817165 364.63202873 -243.5625 340.375 C-243.97556396 339.15248535 -243.97556396 339.15248535 -244.39697266 337.90527344 C-247.63505506 328.13442323 -250.16735473 318.25281263 -252.3125 308.1875 C-252.51125732 307.26283936 -252.71001465 306.33817871 -252.91479492 305.38549805 C-256.20749027 289.17888823 -256.93780278 273.2446298 -256.875 256.75 C-256.87284485 255.73176147 -256.8706897 254.71352295 -256.86846924 253.66442871 C-256.81876609 239.0402116 -256.50457988 224.74695362 -253.5625 210.375 C-253.27246094 208.88009033 -253.27246094 208.88009033 -252.9765625 207.35498047 C-243.54341605 159.6142339 -221.5681851 115.34968058 -187.5625 80.375 C-186.90233887 79.68905762 -186.24217773 79.00311523 -185.56201172 78.29638672 C-176.11043376 68.50777901 -166.56772516 59.38519293 -155.5625 51.375 C-154.41255169 50.51850934 -153.26281411 49.66173567 -152.11328125 48.8046875 C-143.92333859 42.76588249 -135.40365311 37.40503316 -126.5625 32.375 C-125.96356934 32.03227051 -125.36463867 31.68954102 -124.74755859 31.33642578 C-100.11252907 17.36342098 -73.24184739 8.88562334 -45.5625 3.375 C-44.68094238 3.19420898 -43.79938477 3.01341797 -42.89111328 2.82714844 C-28.71820604 0.05592498 -14.38671535 0.06815901 0 0 Z " fill="#414C7E" transform="translate(256.5625,-0.375)"/>
<path d="M0 0 C4.63699251 3.09132834 7.74159936 6.39221867 8.921875 11.86328125 C9.15525893 13.30160804 9.36856426 14.74332517 9.5625 16.1875 C9.73072266 17.25000977 9.73072266 17.25000977 9.90234375 18.33398438 C10.23790769 20.51120217 10.52884862 22.69043294 10.8125 24.875 C10.90096191 25.55103775 10.98942383 26.2270755 11.08056641 26.92359924 C11.7638661 32.5584945 11.98679107 38.11591183 12.015625 43.7890625 C12.02263931 44.71330521 12.02965363 45.63754791 12.03688049 46.58979797 C12.05430807 49.5599153 12.06073363 52.52983341 12.0625 55.5 C12.06317474 56.5132132 12.06384949 57.52642639 12.06454468 58.57034302 C12.04900905 73.2253762 11.7384322 87.4660573 8.8125 101.875 C8.63557617 102.77541016 8.45865234 103.67582031 8.27636719 104.60351562 C6.97740726 111.0781242 5.46630732 117.48242152 3.8125 123.875 C3.60286621 124.69500488 3.39323242 125.51500977 3.17724609 126.35986328 C-7.40570657 166.82601098 -29.26777621 203.84858847 -58.1875 233.875 C-58.81962402 234.53435547 -59.45174805 235.19371094 -60.10302734 235.87304688 C-69.24616376 245.35994274 -78.52579949 254.12827496 -89.1875 261.875 C-89.84186035 262.35775391 -90.4962207 262.84050781 -91.17041016 263.33789062 C-126.37979014 289.24401295 -166.3523201 305.47077804 -209.625 311.6875 C-210.85464478 311.87397095 -210.85464478 311.87397095 -212.10913086 312.06420898 C-222.85284121 313.44270496 -233.1918557 312.875 -244.1875 312.875 C-244.1875 296.375 -244.1875 279.875 -244.1875 262.875 C-240.8875 261.225 -237.5875 259.575 -234.1875 257.875 C-230.08812159 252.69453552 -229.56448841 248.14570145 -229.1875 241.6875 C-227.64365193 223.18978117 -219.56801296 207.4651375 -206.1875 194.5625 C-194.1526383 184.40808544 -179.19259712 178.09099969 -163.5 177.5 C-157.23898492 177.18121104 -152.73408476 176.37035564 -148.1875 171.875 C-145.28336779 167.6398072 -145.41639725 161.83549603 -146.1875 156.875 C-148.47702282 152.15838646 -152.46660199 149.85118986 -157.1875 147.875 C-157.1875 147.545 -157.1875 147.215 -157.1875 146.875 C-155.97578125 146.66746094 -154.7640625 146.45992187 -153.515625 146.24609375 C-123.12664704 140.77093327 -94.95224411 127.95242521 -72.1875 106.875 C-71.6502832 106.38161133 -71.11306641 105.88822266 -70.55957031 105.37988281 C-44.25518138 80.94880347 -28.78114935 48.30863853 -22.70629883 13.20556641 C-21.81049574 8.43644742 -20.71347294 5.4278375 -17.1875 1.875 C-11.48804156 -1.88146124 -6.32552366 -2.23253776 0 0 Z " fill="#293564" transform="translate(500.1875,199.125)"/>
<path d="M0 0 C4.86159099 3.20423043 7.07202322 6.48758384 8.33203125 12.1953125 C8.76907346 14.93193195 9.05877869 17.67132427 9.34204102 20.42749023 C11.11680998 37.11189086 18.21783862 53.31948965 30.75 64.8125 C43.45128742 74.84503442 57.12602271 81.46901139 73.5 82.1875 C80.93517018 82.63271977 84.79480494 85.22670432 90.25 90 C93.03438677 95.22072519 92.42214395 100.58602317 90.75 106.125 C87.90148447 109.95269274 85.26790308 112.16901131 80.75 113.8125 C77.10590081 114.20540643 73.49045271 114.32206499 69.828125 114.45703125 C53.13717049 115.50725765 36.9896888 125.00110515 25.6875 136.875 C14.98418055 149.43697971 9.5656579 163.69574938 8.60791016 180.05151367 C8.1437036 186.43402128 6.5854772 191.23479345 1.6875 195.6875 C-2.759642 198.26971148 -7.24545529 198.43699874 -12.25 197.8125 C-16.22204371 195.75292178 -18.94435689 193.63586337 -21.25 189.8125 C-21.83984375 186.484375 -21.83984375 186.484375 -22.1875 182.5625 C-24.46239315 161.32772571 -31.8267711 142.9198933 -48.59765625 128.7578125 C-60.98474287 119.67273277 -74.5923774 115.20923316 -89.875 114.3125 C-95.99534069 113.95149225 -99.90224116 112.39503473 -104.125 107.75 C-106.84110844 103.07225769 -107.10209004 98.06838247 -106.25 92.8125 C-103.90603284 88.62848044 -100.76860424 85.49843301 -96.25 83.8125 C-93.42835989 83.45374455 -90.64380324 83.16993141 -87.8125 82.9375 C-69.88595557 81.15940829 -53.17784516 74.32896445 -40.58203125 61.0546875 C-29.83538268 47.74382519 -24.23076312 31.58461257 -23.10791016 14.67236328 C-22.61758414 8.78142635 -20.62194005 4.89693216 -16.1875 1 C-11.04600443 -2.15123922 -5.48396699 -2.00375717 0 0 Z " fill="#FEDE4F" transform="translate(263.25,263.1875)"/>
<path d="M0 0 C5.19593092 2.36178678 7.74070594 5.86977273 10 11 C10.6875 14.83203125 10.6875 14.83203125 11 18.8125 C12.39714449 32.66764895 18.12955023 42.51140938 28.83203125 51.43359375 C35.96874283 56.5900286 43.69149004 59.40202991 52.3984375 60.3828125 C64.83048362 61.81627694 64.83048362 61.81627694 69 67 C71.59353383 71.51932947 72.62739064 75.88028275 71.7109375 81.04296875 C70.15375939 85.3294865 67.0340163 88.68014942 63.2421875 91.140625 C60.1673324 92.31914089 57.21034311 92.5433158 53.9375 92.875 C40.11472245 94.53025209 28.507042 99.84225549 19.53125 110.765625 C14.52827024 118.06589139 11.62236888 126.38469423 10.65234375 135.13671875 C9.9030133 141.51694014 9.28462406 146.1651857 4.5703125 150.765625 C0.28452156 154.13455519 -3.63818622 154.5452692 -9 154 C-13.4710636 152.60174603 -16.34359739 150.77731888 -19.375 147.1875 C-21.73993656 142.40621521 -21.85404374 137.00670815 -22.4609375 131.78125 C-24.22718453 119.39192299 -30.40268263 109.20721626 -40.3125 101.5625 C-48.14464438 96.30883937 -55.41969526 94.08363776 -64.75 93 C-70.58985975 92.30040259 -74.4732067 91.82262546 -79 88 C-82.42480153 83.26510873 -83.76142913 78.87388183 -83 73 C-81.10672504 67.7409029 -78.40216785 65.20991406 -74 62 C-71.14077265 61.04692422 -68.53965834 60.70337199 -65.55493164 60.40551758 C-50.89272143 58.89584921 -40.16591308 53.74542241 -30.56640625 42.23046875 C-25.22031165 34.61795001 -22.77423141 26.09904741 -21.6171875 16.984375 C-20.72918968 10.42933655 -19.98113393 6.50674022 -15 2 C-10.2979533 -0.8935672 -5.34916873 -0.61332994 0 0 Z " fill="#FFDF4E" transform="translate(440,0)"/>
<path d="M0 0 C0 65.67 0 131.34 0 199 C-8.4 197.8 -8.4 197.8 -12 194 C-14.69628191 188.70729848 -15.50744343 184.18805359 -15.9375 178.3125 C-17.7373129 159.19046189 -26.58931372 142.40791286 -41.34765625 129.9453125 C-53.73474287 120.86023277 -67.3423774 116.39673316 -82.625 115.5 C-88.74534069 115.13899225 -92.65224116 113.58253473 -96.875 108.9375 C-99.59110844 104.25975769 -99.85209004 99.25588247 -99 94 C-96.65603284 89.81598044 -93.51860424 86.68593301 -89 85 C-86.17835989 84.64124455 -83.39380324 84.35743141 -80.5625 84.125 C-62.63595557 82.34690829 -45.92784516 75.51646445 -33.33203125 62.2421875 C-22.58538268 48.93132519 -16.98076312 32.77211257 -15.85791016 15.85986328 C-15.36758414 9.96892635 -13.37194005 6.08443216 -8.9375 2.1875 C-5.76674101 0.24413159 -3.76179451 0 0 0 Z " fill="#FDF69B" transform="translate(256,262)"/>
<path d="M0 0 C3.51520834 2.3707219 5.79390381 5.02530762 7.6875 8.8125 C7.75746014 10.51952735 7.77190154 12.22918003 7.75 13.9375 C7.74097656 14.84757812 7.73195313 15.75765625 7.72265625 16.6953125 C7.71105469 17.39398438 7.69945312 18.09265625 7.6875 18.8125 C8.55761719 18.76029297 8.55761719 18.76029297 9.4453125 18.70703125 C14.66093867 18.52629173 18.22267444 18.80133858 22.6875 21.8125 C27.35927343 26.98933002 28.0353341 30.20603498 27.97265625 37.046875 C27.4764048 41.8598343 25.14935415 44.52784029 21.625 47.625 C18.3647686 49.62320634 15.73273696 49.92909764 12 49.875 C10.78763672 49.86146484 10.78763672 49.86146484 9.55078125 49.84765625 C8.93589844 49.83605469 8.32101562 49.82445312 7.6875 49.8125 C7.73390625 50.46476562 7.7803125 51.11703125 7.828125 51.7890625 C8.07283134 57.71445163 7.76650338 61.16696837 3.6875 65.8125 C-0.34738765 69.35831036 -3.87911409 70.11610179 -9.25390625 70.02734375 C-13.69017285 69.56435577 -16.51660776 67.63050036 -19.5625 64.5 C-22.70961181 59.66693544 -23.58534842 55.54231691 -23.3125 49.8125 C-25.106875 49.9053125 -25.106875 49.9053125 -26.9375 50 C-32.66106453 49.96971659 -35.94862125 48.0854535 -40.125 44.1875 C-43.02504412 40.40524181 -43.58249585 36.50060969 -43.3125 31.8125 C-41.64428897 25.92469635 -39.1514666 23.24010134 -34.3125 19.8125 C-31.56171116 18.89557039 -29.95301087 18.70363917 -27.125 18.75 C-25.2378125 18.7809375 -25.2378125 18.7809375 -23.3125 18.8125 C-23.30992187 18.09964844 -23.30734375 17.38679688 -23.3046875 16.65234375 C-23.05368798 10.43592238 -22.31021796 6.70470218 -17.98046875 2.15234375 C-12.50212848 -2.24829023 -6.46449223 -2.31745948 0 0 Z " fill="#FFDF4E" transform="translate(484.3125,442.1875)"/>
<path d="M0 0 C5.00236244 3.29701161 7.33343787 7.02820463 8.75 12.8125 C8.875 16.1875 8.875 16.1875 8.75 18.8125 C9.94625 18.750625 11.1425 18.68875 12.375 18.625 C18.09856453 18.65528341 21.38612125 20.5395465 25.5625 24.4375 C28.46254412 28.21975819 29.01999585 32.12439031 28.75 36.8125 C27.08178897 42.70030365 24.5889666 45.38489866 19.75 48.8125 C16.99921116 49.72942961 15.39051087 49.92136083 12.5625 49.875 C11.304375 49.854375 10.04625 49.83375 8.75 49.8125 C8.74742187 50.52535156 8.74484375 51.23820312 8.7421875 51.97265625 C8.49253249 58.15577877 7.82478214 62.07699304 3.3515625 66.5078125 C-0.58082296 69.71126797 -4.21125942 70.21467957 -9.26171875 70.0625 C-13.79164871 69.49292138 -16.56247966 67.57434686 -19.5625 64.25 C-22.00888703 60.71632984 -22.36714281 58.94963925 -22.3125 54.6875 C-22.30347656 53.77742188 -22.29445313 52.86734375 -22.28515625 51.9296875 C-22.27355469 51.23101562 -22.26195312 50.53234375 -22.25 49.8125 C-23.12011719 49.86470703 -23.12011719 49.86470703 -24.0078125 49.91796875 C-29.22343867 50.09870827 -32.78517444 49.82366142 -37.25 46.8125 C-41.92177343 41.63566998 -42.5978341 38.41896502 -42.53515625 31.578125 C-42.0389048 26.7651657 -39.71185415 24.09715971 -36.1875 21 C-32.9272686 19.00179366 -30.29523696 18.69590236 -26.5625 18.75 C-25.35013672 18.76353516 -25.35013672 18.76353516 -24.11328125 18.77734375 C-23.49839844 18.78894531 -22.88351562 18.80054688 -22.25 18.8125 C-22.29640625 18.16023438 -22.3428125 17.50796875 -22.390625 16.8359375 C-22.63533134 10.91054837 -22.32900338 7.45803163 -18.25 2.8125 C-12.86412785 -1.92053917 -6.58073981 -2.40450109 0 0 Z " fill="#FFDF4E" transform="translate(289.25,131.1875)"/>
</svg>
